<svg width="100%" viewBox="0 0 1000 280" role="img" xmlns="http://www.w3.org/2000/svg" font-family="Bahnschrift, 'DIN Next', 'Oswald', 'Segoe UI Semibold', 'Segoe UI', sans-serif">
<title>OSF Animation logo lockup (horizontal)</title>
<desc>Horizontal NASA-punk lockup: an amber articulated armature figure mid-stride at left, with the wordmark OSF in brushed-steel grey and ANIMATION in burnt amber on one line to the right. Faint starfield, halo and steel HUD corner brackets on near-black.</desc>
<!-- ============================================================
     OSF ANIMATION — primary logo, horizontal lockup (2026-06-18)
     Composition: emblem left, one-line wordmark right.
     Palette: burnt amber (#e6904a/#c2622f) + brushed steel (#c8ced5/#828a93)
     on near-black #0b0e12. Font: Bahnschrift/DIN (ships on Win11).
     ============================================================ -->
<defs>
  <linearGradient id="osf" x1="0" y1="120" x2="0" y2="186" gradientUnits="userSpaceOnUse">
    <stop offset="0" stop-color="#c8ced5"/><stop offset="1" stop-color="#828a93"/>
  </linearGradient>
  <linearGradient id="anim" x1="300" y1="130" x2="900" y2="180" gradientUnits="userSpaceOnUse">
    <stop offset="0" stop-color="#e6904a"/><stop offset="0.55" stop-color="#cf8050"/><stop offset="1" stop-color="#c2622f"/>
  </linearGradient>
  <radialGradient id="halo" cx="20%" cy="50%" r="34%">
    <stop offset="0" stop-color="#c2622f" stop-opacity="0.14"/><stop offset="1" stop-color="#c2622f" stop-opacity="0"/>
  </radialGradient>
  <radialGradient id="gmask" cx="50%" cy="50%" r="62%">
    <stop offset="0" stop-color="#fff"/><stop offset="0.6" stop-color="#fff" stop-opacity="0.35"/><stop offset="1" stop-color="#fff" stop-opacity="0"/>
  </radialGradient>
  <radialGradient id="vig" cx="50%" cy="50%" r="72%">
    <stop offset="0.5" stop-color="#0b0e12" stop-opacity="0"/><stop offset="1" stop-color="#04060a" stop-opacity="0.6"/>
  </radialGradient>
  <mask id="gm"><rect width="1000" height="280" fill="url(#gmask)"/></mask>
  <pattern id="grid" width="24" height="24" patternUnits="userSpaceOnUse">
    <path d="M24 0 H0 V24" fill="none" stroke="#8c96a6" stroke-opacity="0.04" stroke-width="0.5"/>
  </pattern>
</defs>

<rect width="1000" height="280" fill="#0b0e12"/>
<rect width="1000" height="280" fill="url(#grid)" mask="url(#gm)"/>
<rect width="1000" height="280" fill="url(#halo)"/>

<g fill="#e6e2d8">
  <circle cx="70" cy="44" r="1.1" opacity="0.5"/><circle cx="150" cy="92" r="0.7" opacity="0.35"/>
  <circle cx="240" cy="38" r="1.2" opacity="0.5"/><circle cx="520" cy="52" r="1" opacity="0.45"/>
  <circle cx="700" cy="40" r="0.9" opacity="0.4"/><circle cx="880" cy="62" r="1.1" opacity="0.5"/>
  <circle cx="60" cy="208" r="0.9" opacity="0.42"/><circle cx="300" cy="236" r="0.7" opacity="0.32"/>
  <circle cx="620" cy="232" r="0.8" opacity="0.38"/><circle cx="930" cy="210" r="0.7" opacity="0.34"/>
  <circle cx="420" cy="30" r="0.7" opacity="0.33"/><circle cx="800" cy="226" r="0.9" opacity="0.4"/>
</g>

<!-- emblem: playback-curve device, no ring -->
<g transform="translate(-38,2) scale(0.5)">
  <g fill="none" stroke="#c2622f">
    <circle cx="266" cy="280" r="22" stroke-opacity="0.5" stroke-width="2.4"/>
    <circle cx="266" cy="280" r="35" stroke-opacity="0.3" stroke-width="1.8"/>
    <circle cx="266" cy="280" r="48" stroke-opacity="0.18" stroke-width="1.4"/>
  </g>
  <path d="M118 392 C250 392 286 168 404 168" fill="none" stroke="#d98a4a" stroke-width="6" stroke-linecap="round"/>
  <g fill="#e8a45a">
    <path d="M118 384 L126 392 L118 400 L110 392 Z"/>
    <path d="M202 349 L209 357 L202 365 L195 357 Z"/>
    <path d="M328 195 L335 203 L328 211 L321 203 Z"/>
  </g>
  <path d="M404 152 L410 165 L423 168 L410 171 L404 184 L398 171 L385 168 L398 165 Z" fill="#e8a45a"/>
  <circle cx="266" cy="280" r="10" fill="none" stroke="#e0a05c" stroke-width="3.8"/>
  <circle cx="266" cy="280" r="4" fill="#f3ddc2"/>
</g>

<!-- wordmark: one line, emblem-right -->
<text x="313" y="156" font-size="80" font-weight="700" letter-spacing="3"><tspan fill="url(#osf)">OSF </tspan><tspan fill="url(#anim)">ANIMATION</tspan></text>

<!-- byline -->
<g stroke="#4d9aa8" stroke-opacity="0.5" stroke-width="1">
  <line x1="316" y1="195" x2="346" y2="195"/><line x1="316" y1="192" x2="316" y2="198"/>
</g>
<text x="360" y="200" font-size="15" font-weight="500" letter-spacing="3.4" fill="#aeb6bf">ANIMATION AND SCENE FRAMEWORK</text>

<!-- HUD corner brackets -->
<g fill="none" stroke="#4d9aa8" stroke-opacity="0.45" stroke-width="1.3">
  <path d="M18 42 V18 H42"/><path d="M982 42 V18 H958"/>
  <path d="M18 238 V262 H42"/><path d="M982 238 V262 H958"/>
</g>

<rect width="1000" height="280" fill="url(#vig)"/>
</svg>
