<svg width="1600" height="520" viewBox="0 0 1600 520" role="img" xmlns="http://www.w3.org/2000/svg" font-family="Bahnschrift, 'DIN Next', 'Oswald', 'Segoe UI Semibold', sans-serif">
<title>OSF Animation header banner</title>
<desc>A wide NASA-punk header: the OSF Animation mission patch at left, with the large wordmark OSF in brushed steel and ANIMATION in burnt amber to the right over the tagline Animation and Scene Framework, on a near-black starfield with a dark planet limb and steel HUD corner brackets.</desc>
<defs>
  <linearGradient id="hosf" x1="0" y1="190" x2="0" y2="290" gradientUnits="userSpaceOnUse">
    <stop offset="0" stop-color="#d4dae1"/><stop offset="1" stop-color="#828a93"/>
  </linearGradient>
  <linearGradient id="hanim" x1="800" y1="200" x2="1500" y2="290" gradientUnits="userSpaceOnUse">
    <stop offset="0" stop-color="#e6904a"/><stop offset="0.55" stop-color="#cf8050"/><stop offset="1" stop-color="#c2622f"/>
  </linearGradient>
  <radialGradient id="hhalo" cx="19%" cy="52%" r="38%">
    <stop offset="0" stop-color="#c2622f" stop-opacity="0.16"/><stop offset="1" stop-color="#c2622f" stop-opacity="0"/>
  </radialGradient>
  <radialGradient id="hvig" cx="50%" cy="45%" r="75%">
    <stop offset="0.55" stop-color="#0b0e12" stop-opacity="0"/><stop offset="1" stop-color="#04060a" stop-opacity="0.7"/>
  </radialGradient>
  <clipPath id="hscene"><circle cx="340" cy="340" r="238"/></clipPath>
  <path id="htopArc" d="M116.61 221.22 A253 253 0 0 1 563.39 221.22" fill="none"/>
  <path id="hbotArc" d="M111.03 483.08 A270 270 0 0 0 568.97 483.08" fill="none"/>
</defs>

<rect width="1600" height="520" fill="#0b0e12"/>
<rect width="1600" height="520" fill="url(#hhalo)"/>
<circle cx="800" cy="1320" r="860" fill="#10151f"/>
<circle cx="800" cy="1320" r="860" fill="none" stroke="#c2622f" stroke-width="2.5" opacity="0.4"/>
<g fill="#e6e2d8">
  <circle cx="700" cy="70" r="1.2" opacity="0.5"/><circle cx="900" cy="48" r="0.9" opacity="0.4"/>
  <circle cx="1080" cy="92" r="1.1" opacity="0.45"/><circle cx="1280" cy="60" r="1" opacity="0.42"/>
  <circle cx="1440" cy="110" r="1.2" opacity="0.5"/><circle cx="1180" cy="150" r="0.8" opacity="0.35"/>
  <circle cx="1520" cy="210" r="0.9" opacity="0.4"/><circle cx="760" cy="120" r="0.8" opacity="0.34"/>
  <circle cx="990" cy="420" r="0.9" opacity="0.38"/><circle cx="1350" cy="400" r="0.8" opacity="0.34"/>
  <circle cx="1230" cy="450" r="1" opacity="0.4"/><circle cx="650" cy="430" r="0.8" opacity="0.32"/>
  <circle cx="1470" cy="330" r="0.9" opacity="0.36"/><circle cx="860" cy="380" r="0.8" opacity="0.3"/>
</g>

<g fill="none" stroke="#4d9aa8" stroke-opacity="0.4" stroke-width="1.4">
  <path d="M44 78 V44 H78"/><path d="M1556 78 V44 H1522"/>
  <path d="M44 442 V476 H78"/><path d="M1556 442 V476 H1522"/>
</g>

<g transform="translate(58.94,28.94) scale(0.709)">
  <circle cx="340" cy="340" r="296" fill="#cf7b38"/>
  <circle cx="340" cy="340" r="289" fill="none" stroke="#8a4a23" stroke-width="3"/>
  <circle cx="340" cy="340" r="283" fill="#0c1118"/>
  <circle cx="340" cy="340" r="238" fill="#0a0d12"/>
  <g clip-path="url(#hscene)">
    <g fill="#ece6d9">
      <circle cx="168" cy="196" r="1.2" opacity="0.45"/><circle cx="512" cy="168" r="1.1" opacity="0.45"/>
      <circle cx="150" cy="262" r="1" opacity="0.4"/><circle cx="540" cy="262" r="1.1" opacity="0.44"/>
      <circle cx="498" cy="402" r="0.9" opacity="0.36"/><circle cx="178" cy="372" r="0.9" opacity="0.36"/>
    </g>
    <circle cx="340" cy="845" r="360" fill="#161d2a"/>
    <circle cx="340" cy="845" r="360" fill="none" stroke="#c2622f" stroke-width="2.5" opacity="0.6"/>
  </g>
  <circle cx="340" cy="340" r="272" fill="none" stroke="#b9c0c9" stroke-opacity="0.32" stroke-width="1.5" stroke-dasharray="2 7"/>
  <circle cx="340" cy="340" r="239" fill="none" stroke="#b9c0c9" stroke-opacity="0.2" stroke-width="1"/>
  <g stroke="#b9c0c9" stroke-opacity="0.38" stroke-width="1.6" stroke-linecap="round">
    <line x1="340" y1="98" x2="340" y2="104" transform="rotate(45 340 340)"/>
    <line x1="340" y1="98" x2="340" y2="104" transform="rotate(135 340 340)"/>
    <line x1="340" y1="98" x2="340" y2="104" transform="rotate(225 340 340)"/>
    <line x1="340" y1="98" x2="340" y2="104" transform="rotate(315 340 340)"/>
  </g>
  <text font-size="15" letter-spacing="7" font-weight="600" text-anchor="middle" fill="#9aa3ad"><textPath href="#htopArc" startOffset="50%">EST · MMXXVI</textPath></text>
  <text font-size="15.5" letter-spacing="4.5" font-weight="500" text-anchor="middle" fill="#aeb6bf"><textPath href="#hbotArc" startOffset="50%">OPEN SCENE FRAMEWORK</textPath></text>
  <g transform="translate(74,60)">
    <g fill="none" stroke="#c2622f">
      <circle cx="266" cy="280" r="22" stroke-opacity="0.5" stroke-width="2"/>
      <circle cx="266" cy="280" r="35" stroke-opacity="0.3" stroke-width="1.6"/>
      <circle cx="266" cy="280" r="48" stroke-opacity="0.18" stroke-width="1.3"/>
    </g>
    <path d="M118 392 C250 392 286 168 404 168" fill="none" stroke="#d98a4a" stroke-width="4.4" stroke-linecap="round"/>
    <g fill="#e8a45a">
      <path d="M118 384 L126 392 L118 400 L110 392 Z"/>
      <path d="M202 349 L209 357 L202 365 L195 357 Z"/>
      <path d="M328 195 L335 203 L328 211 L321 203 Z"/>
    </g>
    <path d="M404 152 L410 165 L423 168 L410 171 L404 184 L398 171 L385 168 L398 165 Z" fill="#e8a45a"/>
    <circle cx="266" cy="280" r="10" fill="none" stroke="#e0a05c" stroke-width="3.4"/>
    <circle cx="266" cy="280" r="4" fill="#f3ddc2"/>
  </g>
  <g fill="#e8a45a">
    <path d="M78 328 L81.1 336.9 L90 340 L81.1 343.1 L78 352 L74.9 343.1 L66 340 L74.9 336.9 Z"/>
    <path d="M602 328 L605.1 336.9 L614 340 L605.1 343.1 L602 352 L598.9 343.1 L590 340 L594.9 336.9 Z"/>
  </g>
</g>

<text x="628" y="272" font-size="104" font-weight="700" letter-spacing="3"><tspan fill="url(#hosf)">OSF </tspan><tspan fill="url(#hanim)">ANIMATION</tspan></text>
<g stroke="#c2622f" stroke-opacity="0.55" stroke-width="2" stroke-linecap="round">
  <line x1="635" y1="300" x2="1402" y2="300"/>
  <line x1="635" y1="294" x2="635" y2="306"/><line x1="1402" y1="294" x2="1402" y2="306"/>
</g>
<text x="1018" y="338" font-size="26" letter-spacing="6" font-weight="500" fill="#aeb6bf" text-anchor="middle">ANIMATION AND SCENE FRAMEWORK</text>

<rect width="1600" height="520" fill="url(#hvig)"/>
</svg>
